<svg version="1.1" xmlns="http://www.w3.org/2000/svg" viewBox="0 0 250 250"><desc>Created with Snap</desc><defs></defs><g transform="matrix(0.0595,0,0,0.0595,39.1577,212.8374)"><g transform="matrix(7.7787,0,0,7.7787,143.9602,-3433.9273)">
<g>
	<path fill-rule="evenodd" clip-rule="evenodd" d="M167,21l52,30v60l-43,25v21h22l24-43h61l30,53l-30,52h-61l-24-43h-22v22l43,24v61
		l-52,30l-53-30v-61l43-24v-22h-21l-25,43H51l-30-52l30-53h60l25,43h21v-21l-43-25V51L167,21z M219,157h14v19h-14l14,25h39l19-34
		l-19-34h-39L219,157z M115,176h-15v-19h15l-14-24H61l-19,34l19,34h40L115,176z M157,115v-15h19v15l25-14V61l-34-19l-34,19v40
		L157,115z M176,219v14h-19v-14l-24,14v39l34,19l34-19v-39L176,219z" fill="#143d59" style=""></path>
</g>
<desc>Created with Snap</desc><defs></defs></g><g><g transform="matrix(0.5,0,0,-0.5,0,0)"><path d="M503 1133Q503 1123 500 1115Q498 1108 495 1100Q478 1060 459 1021Q440 983 429 940Q392 790 373 637Q355 484 349 329Q414 315 465 283Q517 251 566 207Q661 247 738 307Q816 367 871 445Q926 523 956 618Q986 713 986 821Q986 881 968 943Q951 1006 919 1065Q888 1124 844 1176Q801 1228 748 1266Q695 1305 634 1327Q574 1350 509 1350Q447 1350 380 1327Q314 1304 259 1262Q204 1221 169 1163Q134 1105 134 1036Q134 1009 140 987Q147 966 154 948Q162 930 168 914Q175 899 175 883Q175 854 155 834Q136 815 108 815Q82 815 67 829Q52 843 43 864Q35 885 32 908Q30 932 30 950Q30 1038 72 1109Q114 1180 180 1237Q222 1273 264 1300Q307 1327 352 1346Q398 1365 447 1374Q496 1384 552 1384Q632 1384 706 1364Q781 1344 846 1307Q912 1270 966 1218Q1021 1166 1060 1102Q1099 1038 1120 963Q1142 889 1142 807Q1142 686 1098 584Q1055 482 981 401Q907 321 809 262Q711 204 603 171Q614 160 624 150Q635 140 646 129Q706 70 765 4Q825 -62 888 -127Q951 -192 1018 -252Q1085 -311 1160 -357Q1235 -402 1319 -429Q1404 -456 1501 -456Q1518 -456 1533 -455Q1549 -453 1566 -448L1571 -468Q1527 -491 1478 -501Q1429 -511 1378 -511Q1272 -511 1185 -490Q1098 -468 1024 -429Q950 -390 887 -336Q824 -281 766 -216Q708 -151 652 -78Q597 -4 538 74Q525 91 512 108Q500 126 488 143Q452 137 416 133Q381 130 346 129Q346 7 352 -112Q358 -231 366 -346L347 -352Q306 -246 284 -120Q263 6 252 134Q226 138 201 145Q176 152 155 164Q135 177 122 195Q110 214 110 240Q110 264 122 281Q134 299 153 310Q173 322 196 328Q219 335 242 337Q241 365 241 392Q241 420 241 446Q241 487 241 548Q242 609 246 678Q251 747 261 818Q271 890 288 953Q306 1016 333 1065Q361 1114 401 1137Q416 1146 434 1153Q452 1161 472 1161Q503 1161 503 1133ZM145 236Q145 222 154 211Q163 200 178 191Q193 183 211 177Q230 171 250 167Q248 201 246 234Q245 268 243 301Q226 301 208 299Q191 297 177 290Q163 283 154 270Q145 258 145 236ZM346 158Q377 158 407 162Q437 166 466 173Q441 207 412 235Q384 264 347 281Q346 250 346 219Q346 189 346 158ZM1505 807Q1505 787 1496 767Q1487 747 1472 731Q1458 716 1439 706Q1420 696 1400 696Q1374 696 1358 713Q1343 730 1343 756Q1343 776 1352 795Q1361 815 1375 830Q1390 845 1408 854Q1427 864 1447 864Q1473 864 1489 848Q1505 832 1505 807ZM1779 147L1785 143Q1762 105 1730 73Q1699 42 1661 18Q1624 -5 1581 -18Q1539 -31 1494 -31Q1438 -31 1394 -12Q1351 7 1321 40Q1292 74 1276 119Q1261 165 1261 219Q1261 277 1278 329Q1295 381 1325 426Q1355 472 1395 510Q1436 548 1482 578L1494 569Q1445 511 1414 439Q1384 367 1384 289Q1384 244 1394 202Q1405 161 1427 129Q1450 97 1485 78Q1520 59 1570 59Q1629 59 1682 84Q1736 109 1779 147ZM2343 -246Q2343 -331 2316 -403Q2290 -474 2239 -526Q2189 -577 2116 -606Q2043 -635 1951 -635Q1933 -635 1901 -631Q1869 -626 1837 -616Q1806 -606 1782 -590Q1759 -574 1759 -551Q1759 -535 1771 -528Q1784 -520 1798 -520Q1815 -520 1830 -532Q1846 -544 1865 -558Q1885 -572 1911 -584Q1938 -596 1978 -596Q2040 -596 2084 -570Q2128 -544 2156 -503Q2184 -462 2197 -411Q2210 -360 2210 -309Q2210 -244 2198 -194Q2187 -144 2161 -104Q2136 -64 2096 -31Q2057 3 2001 35Q1998 38 1994 41Q1990 45 1990 51Q1990 55 2012 80Q2034 106 2061 144Q2088 182 2110 228Q2132 274 2132 319Q2132 342 2125 368Q2119 394 2106 416Q2093 438 2073 452Q2054 467 2029 467Q1998 467 1973 450Q1949 433 1926 404Q1904 375 1886 335Q1869 295 1853 248Q1838 202 1811 158Q1785 115 1712 57L1702 67Q1744 119 1769 179Q1794 239 1809 297Q1824 356 1849 404Q1874 453 1907 499Q1940 545 1980 574Q2020 604 2072 604Q2112 604 2147 586Q2182 568 2208 538Q2235 509 2250 472Q2265 435 2265 397Q2265 359 2251 320Q2238 282 2216 245Q2195 208 2168 175Q2141 143 2115 119Q2230 66 2286 -29Q2343 -124 2343 -246ZM3297 -61L3314 -68Q3303 -140 3264 -194Q3226 -247 3171 -282Q3117 -316 3051 -333Q2986 -350 2920 -350Q2873 -350 2823 -338Q2773 -326 2722 -312Q2672 -298 2623 -286Q2575 -274 2531 -274Q2510 -274 2486 -279Q2463 -284 2440 -293Q2418 -302 2399 -316Q2380 -329 2369 -346L2353 -338Q2357 -296 2374 -261Q2392 -226 2419 -200Q2447 -174 2482 -160Q2518 -145 2560 -145Q2570 -145 2579 -145Q2589 -145 2599 -146Q2557 -46 2529 73Q2502 193 2486 317Q2470 442 2463 565Q2457 688 2457 795Q2457 831 2458 879Q2460 927 2465 980Q2470 1034 2479 1088Q2489 1142 2506 1190Q2523 1238 2548 1276Q2573 1314 2609 1335Q2628 1346 2648 1355Q2669 1364 2691 1364Q2705 1364 2715 1357Q2726 1351 2726 1335Q2726 1326 2723 1318Q2721 1311 2718 1303Q2702 1267 2685 1233Q2669 1199 2658 1163Q2632 1076 2615 974Q2599 872 2591 761Q2583 650 2582 532Q2581 415 2586 298Q2592 182 2602 68Q2612 -45 2626 -149Q2668 -155 2711 -165Q2755 -174 2799 -184Q2844 -193 2890 -200Q2936 -207 2984 -207Q3029 -207 3074 -200Q3120 -192 3161 -175Q3203 -158 3238 -130Q3273 -102 3297 -61ZM3538 807Q3538 787 3529 767Q3520 747 3505 731Q3491 716 3472 706Q3453 696 3433 696Q3407 696 3391 713Q3376 730 3376 756Q3376 776 3385 795Q3394 815 3408 830Q3423 845 3441 854Q3460 864 3480 864Q3506 864 3522 848Q3538 832 3538 807ZM3812 147L3818 143Q3795 105 3763 73Q3732 42 3694 18Q3657 -5 3614 -18Q3572 -31 3527 -31Q3471 -31 3427 -12Q3384 7 3354 40Q3325 74 3309 119Q3294 165 3294 219Q3294 277 3311 329Q3328 381 3358 426Q3388 472 3428 510Q3469 548 3515 578L3527 569Q3478 511 3447 439Q3417 367 3417 289Q3417 244 3427 202Q3438 161 3460 129Q3483 97 3518 78Q3553 59 3603 59Q3662 59 3715 84Q3769 109 3812 147ZM4626 147L4633 143Q4614 107 4592 74Q4571 41 4544 16Q4517 -9 4483 -24Q4449 -39 4405 -39Q4355 -39 4319 -15Q4283 10 4257 50Q4232 91 4216 143Q4201 195 4191 249Q4181 303 4176 355Q4171 408 4167 450Q4148 435 4121 392Q4094 350 4066 293Q4038 236 4012 169Q3987 102 3971 37Q3968 23 3961 8Q3955 -7 3945 -20Q3936 -32 3923 -41Q3910 -49 3894 -49Q3868 -49 3856 -31Q3845 -13 3840 10Q3811 137 3799 253Q3788 369 3788 485Q3788 513 3797 533Q3807 554 3823 567Q3839 581 3861 587Q3883 594 3907 594Q3910 594 3916 594Q3923 594 3929 592Q3935 591 3939 588Q3943 585 3942 580Q3916 449 3917 313Q3918 178 3931 53Q3942 103 3963 166Q3985 230 4013 294Q4042 359 4075 417Q4109 476 4144 516Q4161 535 4178 548Q4196 562 4222 562Q4237 562 4247 556Q4257 550 4263 541Q4270 532 4273 520Q4277 509 4279 498Q4284 469 4289 423Q4294 377 4301 325Q4309 273 4320 220Q4331 168 4348 125Q4365 83 4389 56Q4413 29 4446 29Q4473 29 4498 39Q4524 50 4547 66Q4570 83 4590 104Q4610 126 4626 147ZM5207 147L5215 143Q5189 100 5147 66Q5106 33 5056 9Q5007 -14 4953 -27Q4900 -39 4851 -39Q4791 -39 4739 -21Q4688 -3 4649 31Q4611 66 4589 114Q4568 163 4568 225Q4568 295 4593 362Q4619 429 4664 481Q4710 533 4772 564Q4835 596 4908 596Q4932 596 4956 591Q4980 586 5000 574Q5020 563 5032 544Q5045 525 5045 496Q5045 467 5030 445Q5015 424 4992 410Q4969 396 4942 387Q4916 379 4892 375L4892 389Q4906 393 4922 400Q4939 407 4953 418Q4967 429 4976 444Q4986 459 4986 477Q4986 491 4979 500Q4973 510 4963 516Q4954 522 4942 525Q4930 528 4918 528Q4867 528 4826 505Q4786 483 4758 446Q4730 409 4715 363Q4701 317 4701 270Q4701 216 4717 173Q4734 131 4764 101Q4794 71 4837 55Q4880 39 4933 39Q4967 39 5005 46Q5044 54 5080 68Q5117 82 5150 102Q5183 122 5207 147ZM5742 295Q5742 225 5719 165Q5696 105 5654 61Q5612 17 5553 -8Q5495 -33 5424 -33Q5361 -33 5310 -10Q5260 14 5224 54Q5188 94 5169 147Q5150 201 5150 262Q5150 313 5164 359Q5179 405 5205 444Q5231 484 5267 517Q5303 551 5345 578L5357 569Q5315 520 5291 461Q5267 402 5267 336Q5267 288 5281 238Q5296 189 5324 148Q5352 107 5394 81Q5436 55 5490 55Q5524 55 5554 69Q5584 83 5606 107Q5629 131 5642 161Q5656 192 5656 225Q5656 257 5646 287Q5637 318 5620 344Q5603 371 5579 392Q5555 414 5527 428Q5511 436 5496 440Q5482 444 5465 449Q5458 450 5450 452Q5442 455 5435 458Q5428 462 5423 468Q5418 474 5418 483Q5418 501 5431 516Q5444 531 5462 542Q5480 554 5500 560Q5520 567 5535 567Q5586 567 5625 541Q5664 515 5690 475Q5716 435 5729 387Q5742 339 5742 295Z" fill="#143d59" style=""></path></g></g></g></svg>